<!DOCTYPE svg PUBLIC "-//W3C//DTD SVG 1.1//EN" "http://www.w3.org/Graphics/SVG/1.1/DTD/svg11.dtd">
<!-- Uploaded to: SVG Repo, www.svgrepo.com, Transformed by: SVG Repo Mixer Tools -->
<svg fill="#000000" width="147px" height="147px" viewBox="-3.2 -3.2 38.40 38.40" version="1.1" xmlns="http://www.w3.org/2000/svg" transform="matrix(1, 0, 0, 1, 0, 0)rotate(180)" stroke="#000000" stroke-width="0.00032">
<g id="SVGRepo_bgCarrier" stroke-width="0" transform="translate(0,0), scale(1)">
<path transform="translate(-3.2, -3.2), scale(2.4)" fill="#000000" d="M9.166.33a2.25 2.25 0 00-2.332 0l-5.25 3.182A2.25 2.25 0 00.5 5.436v5.128a2.25 2.25 0 001.084 1.924l5.25 3.182a2.25 2.25 0 002.332 0l5.25-3.182a2.25 2.25 0 001.084-1.924V5.436a2.25 2.25 0 00-1.084-1.924L9.166.33z" strokewidth="0"/>
</g>
<g id="SVGRepo_tracerCarrier" stroke-linecap="round" stroke-linejoin="round" stroke="#0011ff" stroke-width="3.2"> <title>ace_of_spades</title> <path d="M23.504 8.78c-2.015-0.745-3.967-0.522-5.879 0.371-0.18 0.084-0.343 0.215-0.634 0.229 0.718-1.897 1.157-3.838 2.633-5.38h-7.211c0.619 0.864 1.222 1.65 1.569 2.582s0.673 1.841 1.021 2.802c-0.301-0.029-0.458-0.151-0.624-0.229-1.47-0.675-2.989-0.999-4.613-0.72-2.32 0.398-4.014 1.795-4.37 4.007-0.157 0.969 0.015 1.897 0.357 2.802 0.687 1.831 1.879 3.297 3.298 4.607 2.172 2.015 4.109 4.226 5.803 6.621l0.089 0.132c0.322 0.458 1.030 1.395 1.030 1.395l0.631-0.874c0.937-1.461 2.097-2.833 3.225-4.131 1.103-1.269 2.331-2.449 3.573-3.602 1.449-1.344 2.543-2.943 3.069-4.875 0.686-2.515-0.523-4.835-2.967-5.738z"/> </g>
<g id="SVGRepo_iconCarrier"> <title>ace_of_spades</title> <path d="M23.504 8.78c-2.015-0.745-3.967-0.522-5.879 0.371-0.18 0.084-0.343 0.215-0.634 0.229 0.718-1.897 1.157-3.838 2.633-5.38h-7.211c0.619 0.864 1.222 1.65 1.569 2.582s0.673 1.841 1.021 2.802c-0.301-0.029-0.458-0.151-0.624-0.229-1.47-0.675-2.989-0.999-4.613-0.72-2.32 0.398-4.014 1.795-4.37 4.007-0.157 0.969 0.015 1.897 0.357 2.802 0.687 1.831 1.879 3.297 3.298 4.607 2.172 2.015 4.109 4.226 5.803 6.621l0.089 0.132c0.322 0.458 1.030 1.395 1.030 1.395l0.631-0.874c0.937-1.461 2.097-2.833 3.225-4.131 1.103-1.269 2.331-2.449 3.573-3.602 1.449-1.344 2.543-2.943 3.069-4.875 0.686-2.515-0.523-4.835-2.967-5.738z"/> </g>
</svg>